PathFileType	4	(X/Y/Z)	c:/Users/goper/Files/vsCode/490R/osim_files/A01/A01_PWS_02.trc
DataRate	CameraRate	NumFrames	NumMarkers	Units                	OrigDataRate	OrigDataStartFrame	OrigNumFrames
120.00	120.00	10	36	mm	120.0	1253	1431
                Frame#	Time	Mobility_markerset:LPSIS			Mobility_markerset:LASIS			Mobility_markerset:LTH1			Mobility_markerset:LTH2			Mobility_markerset:LTH3			Mobility_markerset:LTH4			Mobility_markerset:LLFE			Mobility_markerset:LMFE			Mobility_markerset:LSH1			Mobility_markerset:LSH2			Mobility_markerset:LSH3			Mobility_markerset:LSH4			Mobility_markerset:LLMAL			Mobility_markerset:LMMAL			Mobility_markerset:LCAL			Mobility_markerset:LMTP5			Mobility_markerset:LTOE			Mobility_markerset:LMTP1			Mobility_markerset:RPSIS			Mobility_markerset:RASIS			Mobility_markerset:RTH1			Mobility_markerset:RTH2			Mobility_markerset:RTH3			Mobility_markerset:RTH4			Mobility_markerset:RLFE			Mobility_markerset:RMFE			Mobility_markerset:RSH1			Mobility_markerset:RSH2			Mobility_markerset:RSH3			Mobility_markerset:RSH4			Mobility_markerset:RLMAL			Mobility_markerset:RMMAL			Mobility_markerset:RCAL			Mobility_markerset:RMTP1			Mobility_markerset:RTOE			Mobility_markerset:RMTP5		
		X1	Y1	Z1	X2	Y2	Z2	X3	Y3	Z3	X4	Y4	Z4	X5	Y5	Z5	X6	Y6	Z6	X7	Y7	Z7	X8	Y8	Z8	X9	Y9	Z9	X10	Y10	Z10	X11	Y11	Z11	X12	Y12	Z12	X13	Y13	Z13	X14	Y14	Z14	X15	Y15	Z15	X16	Y16	Z16	X17	Y17	Z17	X18	Y18	Z18	X19	Y19	Z19	X20	Y20	Z20	X21	Y21	Z21	X22	Y22	Z22	X23	Y23	Z23	X24	Y24	Z24	X25	Y25	Z25	X26	Y26	Z26	X27	Y27	Z27	X28	Y28	Z28	X29	Y29	Z29	X30	Y30	Z30	X31	Y31	Z31	X32	Y32	Z32	X33	Y33	Z33	X34	Y34	Z34	X35	Y35	Z35	X36	Y36	Z36

1253	10.43333	-3627.95776	1054.28333	1524.36853	-3376.48145	1005.56500	1525.94507	-3440.94458	683.97577	1459.44104	-3431.00171	639.92780	1476.10168	0.00000	0.00000	0.00000	0.00000	0.00000	0.00000	0.00000	0.00000	0.00000	-3404.99170	534.16156	1534.30627	-1377.01855	1323.04565	3083.64478	0.00000	0.00000	0.00000	0.00000	0.00000	0.00000	0.00000	0.00000	0.00000	-3450.46655	85.04759	1593.38904	-3477.54102	87.79303	1669.77649	-3536.87207	56.33378	1617.00830	-3308.28687	38.16188	1610.30127	-3296.94946	61.09105	1680.19165	-3320.15210	48.96886	1709.77393	-3662.56177	1050.08740	1620.47632	-3476.69336	980.12268	1761.77393	-3678.96216	672.16724	1789.32141	-3671.50171	628.72784	1790.14038	0.00000	0.00000	0.00000	-3623.23486	631.50116	1809.85864	-3649.98730	483.87009	1772.69263	0.00000	0.00000	0.00000	-3828.36694	404.51483	1664.90259	-3855.88281	371.87292	1650.98572	-3804.58228	361.82382	1698.61560	-3833.88892	333.75266	1680.58557	-3938.92676	237.56895	1578.69263	-3867.06958	208.57249	1533.15173	-3940.36353	257.55542	1505.13989	0.00000	0.00000	0.00000	0.00000	0.00000	0.00000	-3968.34131	95.31681	1621.23987
1254	10.44167	-3620.93091	1054.35986	1526.67200	-3368.74561	1005.60864	1527.05322	-3436.16382	684.41162	1460.17676	-3426.44946	640.15033	1476.66565	0.00000	0.00000	0.00000	0.00000	0.00000	0.00000	0.00000	0.00000	0.00000	-3400.83057	533.89484	1534.60657	-1379.01917	1322.53198	3081.32129	0.00000	0.00000	0.00000	0.00000	0.00000	0.00000	0.00000	0.00000	0.00000	-3450.21948	85.13511	1593.36609	-3477.31738	87.89771	1669.81689	-3536.69385	56.61962	1616.99573	-3308.27148	37.95570	1610.66895	-3296.72559	60.79061	1680.22925	-3319.99463	48.79581	1709.79846	-3655.42212	1049.63281	1622.88098	-3468.20850	980.93744	1763.14673	-3665.89795	670.51294	1795.73792	-3657.71338	627.27069	1796.81091	0.00000	0.00000	0.00000	-3609.21167	631.07050	1816.18945	-3634.37866	483.22247	1779.69543	0.00000	0.00000	0.00000	-3813.52148	407.49045	1672.14502	-3841.65283	375.58655	1657.84094	-3790.42310	363.99481	1705.22327	-3820.16772	336.60858	1686.91431	-3926.46240	244.13344	1584.32312	-3855.57349	213.68428	1537.94861	-3926.66211	265.93011	1511.46497	0.00000	0.00000	0.00000	0.00000	0.00000	0.00000	-3960.67725	102.96228	1624.46094
1255	10.45000	-3613.96558	1054.40259	1529.08740	-3361.55322	1005.67603	1528.25439	-3431.49170	684.77075	1460.96606	-3422.08716	640.35254	1477.24011	0.00000	0.00000	0.00000	0.00000	0.00000	0.00000	0.00000	0.00000	0.00000	-3396.86255	533.59021	1534.86719	-1381.26526	1322.35181	3078.74854	0.00000	0.00000	0.00000	0.00000	0.00000	0.00000	0.00000	0.00000	0.00000	-3449.94873	85.23064	1593.31726	-3477.12769	88.04883	1669.84399	-3536.51880	56.94862	1616.96704	-3307.94189	37.93155	1610.32349	-3296.56812	60.48457	1680.29797	-3319.85254	48.61457	1709.82141	-3648.36206	1049.07837	1625.31580	-3460.01587	981.39404	1764.56226	-3652.74023	669.24927	1802.04651	-3643.82202	626.18524	1803.32837	0.00000	0.00000	0.00000	-3595.28369	631.04163	1822.22424	-3618.46216	482.73843	1786.57068	0.00000	0.00000	0.00000	-3798.35962	410.31860	1679.44836	-3826.97412	379.00034	1664.89539	-3775.79712	365.98813	1711.80225	-3805.95874	339.31100	1693.31287	-3913.52100	250.21925	1590.13867	-3843.59766	219.38147	1542.78149	-3912.25781	273.65930	1517.83484	0.00000	0.00000	0.00000	-3872.52563	70.37514	1616.62061	-3951.67236	110.62509	1628.30151
1256	10.45833	-3607.24414	1054.53467	1531.41846	-3353.82617	1005.71594	1529.37634	-3426.99072	685.11444	1461.71570	-3417.78394	640.51886	1477.78174	0.00000	0.00000	0.00000	0.00000	0.00000	0.00000	0.00000	0.00000	0.00000	-3393.03271	533.27191	1535.16833	-1383.46338	1321.94739	3076.26953	0.00000	0.00000	0.00000	0.00000	0.00000	0.00000	0.00000	0.00000	0.00000	-3449.72998	85.32102	1593.30493	-3476.90356	88.17303	1669.89746	-3536.35400	57.18475	1616.96655	-3308.04443	38.09107	1610.20569	-3296.63745	60.56194	1680.10547	-3319.72144	48.45433	1709.86414	-3641.45703	1048.50732	1627.81189	-3451.50342	981.91357	1766.23572	-3639.55005	668.53027	1808.00574	-3629.90308	625.54248	1809.66406	0.00000	0.00000	0.00000	-3581.31934	631.10693	1828.21851	-3602.44458	482.48666	1793.38306	0.00000	0.00000	0.00000	-3782.88892	412.91769	1686.80322	-3811.93530	382.12579	1671.99805	-3760.66772	367.77676	1718.41125	-3791.36279	341.86966	1699.79016	-3900.05737	255.70755	1596.10181	-3830.96021	223.93922	1548.00916	-3897.83521	280.30252	1524.00977	0.00000	0.00000	0.00000	-3866.54395	70.28893	1622.50537	-3941.32666	117.77967	1632.85022
1257	10.46667	-3600.49951	1054.72986	1533.88318	-3347.43896	1005.84625	1530.65808	-3422.73584	685.38861	1462.45740	-3413.72583	640.69977	1478.42651	-3368.47437	698.07770	1479.02124	0.00000	0.00000	0.00000	0.00000	0.00000	0.00000	-3389.16504	532.89575	1535.56714	-1385.97986	1321.70801	3073.64331	0.00000	0.00000	0.00000	0.00000	0.00000	0.00000	0.00000	0.00000	0.00000	-3449.48462	85.43048	1593.26489	-3476.69800	88.32385	1669.95715	-3536.20801	57.47271	1616.95959	-3307.91504	37.99646	1610.23340	-3296.27808	59.98447	1680.41357	-3319.60107	48.28093	1709.88391	-3634.35962	1047.97791	1630.36401	-3443.94482	981.95642	1768.10254	-3626.31616	668.23035	1813.65723	-3616.20142	625.40594	1815.53479	0.00000	0.00000	0.00000	-3567.80322	631.76782	1833.96533	-3586.47534	482.59772	1799.99963	0.00000	0.00000	0.00000	-3767.22241	415.31934	1694.13611	-3796.64941	385.01038	1679.14429	-3745.36304	369.57715	1725.00330	-3776.32275	344.17838	1706.25806	-3886.24146	260.81635	1602.18176	-3817.96631	227.31932	1553.61182	-3883.38037	285.71857	1530.15759	0.00000	0.00000	0.00000	-3857.39209	69.53087	1625.37158	-3929.75732	123.62994	1638.09680
1258	10.47500	-3593.98828	1055.12512	1536.30212	-3340.60376	1005.98187	1531.93311	-3418.57544	685.72815	1463.24353	-3409.79272	640.82849	1479.05469	-3362.76123	697.88434	1479.70337	0.00000	0.00000	0.00000	0.00000	0.00000	0.00000	-3385.83936	532.77899	1535.70911	-1388.44067	1321.31079	3070.91333	0.00000	0.00000	0.00000	0.00000	0.00000	0.00000	0.00000	0.00000	0.00000	-3449.27393	85.53210	1593.19531	-3476.54688	88.47384	1670.01770	-3536.04199	57.83114	1616.96277	-3307.56372	37.62848	1610.34338	-3296.14453	59.76667	1680.44446	-3319.49634	48.12902	1709.89612	-3627.72827	1047.77551	1632.91736	-3436.28027	981.84979	1770.02075	-3612.99756	668.25360	1818.90247	-3602.69189	625.63025	1821.16870	0.00000	0.00000	0.00000	-3554.28735	632.67285	1839.57629	-3570.36646	482.88010	1806.48828	0.00000	0.00000	0.00000	-3751.35815	417.50320	1701.41663	-3781.18091	387.68066	1686.24341	-3729.78418	371.23514	1731.60779	0.00000	0.00000	0.00000	-3872.17993	264.95743	1608.61108	-3805.11450	231.49767	1558.52820	-3870.06445	290.30139	1536.70874	0.00000	0.00000	0.00000	-3847.39282	73.11433	1627.95032	-3917.14087	127.62218	1644.04028
1259	10.48333	-3587.42627	1055.60010	1538.74329	-3333.91797	1006.18213	1533.26575	-3414.42212	686.08575	1464.14795	-3405.85986	641.01270	1479.76941	-3358.45972	697.95575	1480.25049	-3358.80981	653.84369	1496.73792	0.00000	0.00000	0.00000	-3382.36475	532.49060	1536.14722	-1390.84216	1321.02161	3068.24829	0.00000	0.00000	0.00000	0.00000	0.00000	0.00000	0.00000	0.00000	0.00000	-3449.06030	85.71309	1593.19604	-3476.34839	88.59729	1670.10706	-3535.89917	58.15505	1616.93323	-3307.43579	37.56697	1610.35535	-3295.98096	59.57151	1680.47876	-3319.37939	48.02210	1709.93518	-3620.88550	1047.70056	1635.45496	-3428.30542	981.85779	1771.96606	-3599.97900	668.40894	1823.74414	-3589.03516	625.83063	1826.48999	0.00000	0.00000	0.00000	-3540.90356	633.63062	1844.86768	-3554.04175	483.24722	1812.90479	0.00000	0.00000	0.00000	-3735.31177	419.53748	1708.58374	-3765.39355	390.06683	1693.25159	-3714.04077	372.90207	1738.18970	-3746.23022	347.83899	1719.22949	-3857.97925	268.62479	1615.19653	-3791.49829	235.69032	1564.07568	-3857.14868	294.41483	1543.43030	0.00000	0.00000	0.00000	-3831.58252	77.33761	1633.58386	-3902.13159	130.97110	1650.90625
1260	10.49167	-3580.88306	1056.09375	1541.21777	-3327.21167	1006.56842	1534.52319	-3410.50342	686.50586	1465.07104	-3402.16235	641.26141	1480.49170	-3354.38672	697.65253	1480.94653	-3354.80518	653.71216	1497.40564	0.00000	0.00000	0.00000	-3379.14258	532.36707	1536.47888	-1393.33044	1320.75562	3065.53735	0.00000	0.00000	0.00000	0.00000	0.00000	0.00000	0.00000	0.00000	0.00000	-3449.00391	85.84644	1593.17505	-3476.12744	88.75786	1670.18677	-3535.73193	58.42233	1616.93079	-3307.30908	37.49728	1610.35046	-3295.82007	59.38782	1680.49109	-3319.23267	47.91435	1709.97498	-3613.94775	1047.83191	1637.99536	-3420.90747	981.69568	1774.09265	-3587.08789	668.57031	1828.19617	-3575.65698	626.18396	1831.41565	0.00000	0.00000	0.00000	-3527.50732	634.61792	1849.94849	-3537.58569	483.78802	1818.95862	0.00000	0.00000	0.00000	-3719.17407	421.47058	1715.66968	-3749.51318	392.28586	1700.27502	-3697.95093	374.41452	1744.80396	-3729.75732	350.31430	1725.85461	-3843.44653	271.55496	1622.10913	-3777.30078	239.79784	1569.91125	-3844.56226	297.53055	1550.38770	0.00000	0.00000	0.00000	-3812.61157	80.27621	1640.23413	-3884.71094	133.29028	1657.97888
1261	10.50000	-3574.38916	1056.65527	1543.58447	-3320.84009	1007.04138	1535.82385	-3406.67041	686.82886	1466.12903	-3398.43164	641.42163	1481.31909	-3350.17358	697.58466	1481.82849	0.00000	0.00000	0.00000	0.00000	0.00000	0.00000	-3375.84961	532.09814	1537.04541	-1395.73755	1320.50903	3062.80713	0.00000	0.00000	0.00000	0.00000	0.00000	0.00000	0.00000	0.00000	0.00000	-3448.84058	85.93938	1593.31433	-3475.96655	88.97286	1670.28992	-3535.58643	58.78911	1616.94775	-3307.45581	37.69794	1610.24902	-3295.89355	59.56184	1680.25269	-3319.13794	47.78259	1710.02612	-3606.98706	1048.15649	1640.49268	-3413.41382	981.75281	1776.18469	-3574.15698	668.53638	1832.46277	-3562.11255	626.33459	1836.13953	0.00000	0.00000	0.00000	-3514.24780	635.63385	1854.87439	-3521.12036	484.52841	1824.86975	0.00000	0.00000	0.00000	-3702.78467	423.17770	1722.67163	-3733.38672	394.21881	1707.35986	-3681.66748	375.98267	1751.35999	-3713.60474	352.03693	1732.56641	-3828.60229	273.40265	1629.25903	-3762.66504	242.73567	1576.18982	-3832.13721	299.42609	1557.61035	0.00000	0.00000	0.00000	0.00000	0.00000	0.00000	-3866.01294	134.32010	1665.63147
1262	10.50833	-3567.97412	1057.28625	1545.93555	-3313.74316	1007.63306	1537.06958	-3402.82690	687.13904	1467.22278	-3394.85889	641.59656	1482.20898	-3346.36816	697.53656	1482.55737	0.00000	0.00000	0.00000	0.00000	0.00000	0.00000	-3372.82886	531.99927	1537.46265	-1398.33679	1320.25439	3059.97876	0.00000	0.00000	0.00000	0.00000	0.00000	0.00000	0.00000	0.00000	0.00000	-3449.19141	85.77930	1593.43921	-3475.80542	89.17152	1670.38245	-3535.42627	59.12833	1616.96948	-3307.13330	37.33136	1610.37671	-3295.79810	59.38865	1680.26855	-3319.28516	47.65472	1710.42834	-3600.04346	1048.73096	1642.99426	-3405.73267	981.73242	1778.32275	-3561.51489	668.38129	1836.54651	-3548.56396	626.33020	1840.64941	0.00000	0.00000	0.00000	-3500.04248	636.59680	1860.09460	-3504.46851	485.35059	1830.54370	0.00000	0.00000	0.00000	-3686.25171	424.65268	1729.72229	-3717.06689	395.83432	1714.57471	-3664.74756	377.20065	1757.84229	-3696.94849	353.44821	1739.27466	-3813.28296	274.27783	1636.72595	-3747.62744	245.56073	1582.44092	-3820.08691	300.68036	1564.64856	0.00000	0.00000	0.00000	-3771.16895	85.55018	1652.25427	-3845.34790	133.08809	1673.84900
